<svg width="118" height="121" viewBox="0 0 118 121" fill="none" xmlns="http://www.w3.org/2000/svg">
<rect width="118" height="121" rx="3" fill="#4BE163"/>
<ellipse cx="58.5" cy="49" rx="32.5" ry="32" fill="#46D15C"/>
<path d="M58.5 29C47.1783 29 38 38.1783 38 49.5C38 60.8217 47.1783 70 58.5 70C69.8217 70 79 60.8217 79 49.5C78.9873 38.1836 69.8164 29.0127 58.5 29ZM74.3758 38.8333L72.9551 44.8725L65.4701 47.3673L59.1833 42.3387V34.9291L66.3583 32.0593C69.6068 33.5311 72.3822 35.876 74.3758 38.8333ZM74.4899 59.9859L67.7133 61.0559L64.0234 56.1815L65.9032 48.6649L73.3051 46.1981L77.5452 51.2861C77.2563 54.3928 76.2069 57.3807 74.4899 59.9859ZM49.3167 61.0606L42.5101 59.9859C40.7931 57.38 39.744 54.3914 39.4554 51.2841L43.6922 46.1961L51.0941 48.6628L52.9739 56.1835L49.3167 61.0606ZM39.3727 49.2451C39.409 46.1968 40.1781 43.2015 41.6149 40.5129L42.7233 45.2278L39.3727 49.2451ZM54.2502 55.65L52.4374 48.3916L58.5 43.5419L64.5639 48.3936L62.7498 55.65H54.2502ZM74.2767 45.2252L75.3851 40.5102C76.8219 43.1989 77.591 46.1938 77.6273 49.2424L74.2767 45.2252ZM64.4948 31.3336L58.5 33.7313L52.4731 31.3446C56.3743 30.0444 60.5914 30.0407 64.4948 31.3336ZM50.609 32.075L57.8167 34.9315V42.3387L51.5299 47.3673L44.0449 44.8725L42.6242 38.8333C44.6111 35.8867 47.3745 33.5478 50.609 32.075ZM43.6518 61.5498L49.2066 62.4273L52.5659 67.6891C49.0671 66.54 45.9728 64.4089 43.6518 61.5498ZM54.5251 68.2153L50.4475 61.8314L54.0583 57.0167H62.9417L66.6042 61.8547L63.0511 68.0818C60.256 68.7701 57.3415 68.8168 54.5258 68.2186L54.5251 68.2153ZM64.9493 67.5119L67.8618 62.4149L73.3508 61.5491C71.1457 64.2647 68.2405 66.3264 64.9493 67.5119Z" fill="white"/>
</svg>
