<svg width="118" height="121" viewBox="0 0 118 121" fill="none" xmlns="http://www.w3.org/2000/svg">
<rect width="118" height="121" rx="3" fill="#DC5050"/>
<ellipse cx="60.5" cy="44" rx="32.5" ry="32" fill="#BB2525"/>
<path d="M78.1717 36.616H42.4084C41.9597 36.616 41.5956 36.9801 41.5956 37.4288V56.936C41.5956 59.1761 43.4179 61 45.6596 61H74.9204C77.1622 61 78.9844 59.1761 78.9844 56.936V37.4288C78.9845 36.98 78.6204 36.616 78.1717 36.616ZM77.3589 56.9359C77.3589 58.2803 76.2649 59.3744 74.9205 59.3744H45.6596C44.3152 59.3744 43.2212 58.2803 43.2212 56.9359V38.2415H77.3589V56.9359Z" fill="white"/>
<path d="M78.96 29.0942L77.5765 23.8452C77.2579 22.5691 75.9542 21.7677 74.6619 22.0603L41.9124 29.8306C41.2687 29.9769 40.7241 30.3687 40.3778 30.9312C40.0316 31.4936 39.9292 32.1569 40.0917 32.8006L41.623 38.8543C41.7141 39.2217 42.0457 39.4672 42.4098 39.4672C42.4748 39.4672 42.5415 39.4607 42.6113 39.4428C43.0454 39.3339 43.3087 38.8917 43.1982 38.4561L43.1088 38.1034L78.3535 30.0957C78.5681 30.0453 78.755 29.9119 78.8688 29.7234C78.9843 29.5348 79.0152 29.3072 78.96 29.0942ZM42.7106 36.5265L41.667 32.4056C41.6133 32.191 41.6491 31.9699 41.7629 31.7814C41.8784 31.5944 42.0604 31.4644 42.2815 31.4123L75.0308 23.6436C75.0894 23.629 75.1495 23.6225 75.208 23.6225C75.5722 23.6225 75.9087 23.8728 76.0013 24.2484L77.1734 28.6944L42.7106 36.5265Z" fill="white"/>
<path d="M49.275 36.7005C48.8718 36.5038 48.3874 36.663 48.1826 37.0646L44.9313 43.567C44.7314 43.9685 44.8939 44.4562 45.2955 44.6578C45.4141 44.7163 45.5377 44.744 45.6597 44.744C45.9571 44.744 46.2449 44.5798 46.3879 44.2937L49.6391 37.7913C49.8391 37.3897 49.6765 36.902 49.275 36.7005Z" fill="white"/>
<path d="M57.4014 36.7005C56.9999 36.5038 56.5122 36.663 56.3106 37.0646L53.0593 43.567C52.8594 43.9685 53.0219 44.4562 53.4235 44.6578C53.5421 44.7163 53.6657 44.744 53.7876 44.744C54.0851 44.744 54.3729 44.5798 54.5143 44.2937L57.7655 37.7913C57.9654 37.3897 57.8029 36.902 57.4014 36.7005Z" fill="white"/>
<path d="M65.5294 36.7005C65.1295 36.5038 64.6418 36.663 64.4385 37.0646L61.1873 43.567C60.9874 43.9685 61.1499 44.4562 61.5515 44.6578C61.6701 44.7163 61.7937 44.744 61.9156 44.744C62.2131 44.744 62.5009 44.5798 62.6423 44.2937L65.8935 37.7913C66.0935 37.3897 65.9309 36.902 65.5294 36.7005Z" fill="white"/>
<path d="M73.6574 36.7005C73.2542 36.5038 72.7698 36.663 72.5666 37.0646L69.3153 43.567C69.1154 43.9685 69.2779 44.4562 69.6795 44.6578C69.7981 44.7163 69.9217 44.744 70.0437 44.744C70.3411 44.744 70.6289 44.5798 70.7703 44.2937L74.0215 37.7913C74.2214 37.3897 74.0589 36.902 73.6574 36.7005Z" fill="white"/>
<path d="M78.1717 43.1183H42.4084C41.9597 43.1183 41.5956 43.4825 41.5956 43.9312C41.5956 44.3798 41.9597 44.744 42.4084 44.744H78.1717C78.622 44.744 78.9846 44.3798 78.9846 43.9312C78.9846 43.4825 78.6204 43.1183 78.1717 43.1183Z" fill="white"/>
<path d="M50.2682 35.1968L44.6696 29.5982C44.3526 29.2812 43.8373 29.2812 43.5203 29.5982C43.2033 29.9152 43.2033 30.4306 43.5203 30.7475L49.1189 36.3477C49.2782 36.5054 49.4862 36.5851 49.6943 36.5851C49.9025 36.5851 50.1105 36.5055 50.2682 36.3461C50.5852 36.0291 50.5852 35.5138 50.2682 35.1968Z" fill="white"/>
<path d="M58.2206 33.3907L52.6172 27.7921C52.3002 27.4751 51.7849 27.4751 51.4679 27.7921C51.1509 28.1091 51.1509 28.6245 51.4679 28.9415L57.0698 34.54C57.2291 34.6977 57.4371 34.7774 57.6452 34.7774C57.8533 34.7774 58.0614 34.6978 58.2207 34.54C58.5377 34.223 58.5377 33.7077 58.2206 33.3907Z" fill="white"/>
<path d="M66.1666 31.5847L60.5729 25.9845C60.2559 25.6675 59.7406 25.6675 59.4236 25.9845C59.1066 26.3015 59.1066 26.8168 59.4236 27.1338L65.0173 32.734C65.1766 32.8917 65.3846 32.9714 65.5927 32.9714C65.8008 32.9714 66.0089 32.8933 66.1666 32.734C66.4836 32.417 66.4836 31.9017 66.1666 31.5847Z" fill="white"/>
<path d="M74.1093 29.7803L68.514 24.1801C68.197 23.8631 67.6816 23.8631 67.3646 24.1801C67.0476 24.4971 67.0476 25.0124 67.3646 25.3294L72.9599 30.9296C73.1193 31.0872 73.3273 31.1669 73.5354 31.1669C73.7435 31.1669 73.9515 31.0873 74.1093 30.9296C74.4263 30.6126 74.4263 30.0973 74.1093 29.7803Z" fill="white"/>
<path d="M34.4805 101.783C34.4805 100.799 34.7109 100.014 35.1719 99.4277C35.6367 98.8379 36.252 98.543 37.0176 98.543C37.7402 98.543 38.3086 98.7949 38.7227 99.2988L38.7871 98.6602H40.0703V104.807C40.0703 105.639 39.8105 106.295 39.291 106.775C38.7754 107.256 38.0781 107.496 37.1992 107.496C36.7344 107.496 36.2793 107.398 35.834 107.203C35.3926 107.012 35.0566 106.76 34.8262 106.447L35.5 105.592C35.9375 106.111 36.4766 106.371 37.1172 106.371C37.5898 106.371 37.9629 106.242 38.2363 105.984C38.5098 105.73 38.6465 105.355 38.6465 104.859V104.432C38.2363 104.889 37.6895 105.117 37.0059 105.117C36.2637 105.117 35.6562 104.822 35.1836 104.232C34.7148 103.643 34.4805 102.826 34.4805 101.783ZM35.8984 101.906C35.8984 102.543 36.0273 103.045 36.2852 103.412C36.5469 103.775 36.9082 103.957 37.3691 103.957C37.9434 103.957 38.3691 103.711 38.6465 103.219V100.43C38.377 99.9492 37.9551 99.709 37.3809 99.709C36.9121 99.709 36.5469 99.8945 36.2852 100.266C36.0273 100.637 35.8984 101.184 35.8984 101.906ZM43.0527 105H41.6289V96H43.0527V105ZM44.3418 101.771C44.3418 101.15 44.4648 100.592 44.7109 100.096C44.957 99.5957 45.3027 99.2129 45.748 98.9473C46.1934 98.6777 46.7051 98.543 47.2832 98.543C48.1387 98.543 48.832 98.8184 49.3633 99.3691C49.8984 99.9199 50.1875 100.65 50.2305 101.561L50.2363 101.895C50.2363 102.52 50.1152 103.078 49.873 103.57C49.6348 104.062 49.291 104.443 48.8418 104.713C48.3965 104.982 47.8809 105.117 47.2949 105.117C46.4004 105.117 45.6836 104.82 45.1445 104.227C44.6094 103.629 44.3418 102.834 44.3418 101.842V101.771ZM45.7656 101.895C45.7656 102.547 45.9004 103.059 46.1699 103.43C46.4395 103.797 46.8145 103.98 47.2949 103.98C47.7754 103.98 48.1484 103.793 48.4141 103.418C48.6836 103.043 48.8184 102.494 48.8184 101.771C48.8184 101.131 48.6797 100.623 48.4023 100.248C48.1289 99.873 47.7559 99.6855 47.2832 99.6855C46.8184 99.6855 46.4492 99.8711 46.1758 100.242C45.9023 100.609 45.7656 101.16 45.7656 101.895ZM57.0039 101.895C57.0039 102.879 56.7832 103.662 56.3418 104.244C55.9043 104.826 55.3008 105.117 54.5312 105.117C53.7891 105.117 53.2109 104.85 52.7969 104.314L52.7266 105H51.4375V96H52.8613V99.2695C53.2715 98.7852 53.8242 98.543 54.5195 98.543C55.293 98.543 55.9004 98.8301 56.3418 99.4043C56.7832 99.9785 57.0039 100.781 57.0039 101.812V101.895ZM55.5801 101.771C55.5801 101.084 55.459 100.568 55.2168 100.225C54.9746 99.8809 54.623 99.709 54.1621 99.709C53.5449 99.709 53.1113 99.9785 52.8613 100.518V103.131C53.1152 103.682 53.5527 103.957 54.1738 103.957C54.6191 103.957 54.9629 103.791 55.2051 103.459C55.4473 103.127 55.5723 102.625 55.5801 101.953V101.771ZM57.9355 101.771C57.9355 101.15 58.0586 100.592 58.3047 100.096C58.5508 99.5957 58.8965 99.2129 59.3418 98.9473C59.7871 98.6777 60.2988 98.543 60.877 98.543C61.7324 98.543 62.4258 98.8184 62.957 99.3691C63.4922 99.9199 63.7812 100.65 63.8242 101.561L63.8301 101.895C63.8301 102.52 63.709 103.078 63.4668 103.57C63.2285 104.062 62.8848 104.443 62.4355 104.713C61.9902 104.982 61.4746 105.117 60.8887 105.117C59.9941 105.117 59.2773 104.82 58.7383 104.227C58.2031 103.629 57.9355 102.834 57.9355 101.842V101.771ZM59.3594 101.895C59.3594 102.547 59.4941 103.059 59.7637 103.43C60.0332 103.797 60.4082 103.98 60.8887 103.98C61.3691 103.98 61.7422 103.793 62.0078 103.418C62.2773 103.043 62.4121 102.494 62.4121 101.771C62.4121 101.131 62.2734 100.623 61.9961 100.248C61.7227 99.873 61.3496 99.6855 60.877 99.6855C60.4121 99.6855 60.043 99.8711 59.7695 100.242C59.4961 100.609 59.3594 101.16 59.3594 101.895ZM70.5859 101.895C70.5859 102.875 70.3633 103.658 69.918 104.244C69.4727 104.826 68.875 105.117 68.125 105.117C67.4297 105.117 66.873 104.889 66.4551 104.432V107.438H65.0312V98.6602H66.3438L66.4023 99.3047C66.8203 98.7969 67.3887 98.543 68.1074 98.543C68.8809 98.543 69.4863 98.832 69.9238 99.4102C70.3652 99.9844 70.5859 100.783 70.5859 101.807V101.895ZM69.168 101.771C69.168 101.139 69.041 100.637 68.7871 100.266C68.5371 99.8945 68.1777 99.709 67.709 99.709C67.127 99.709 66.709 99.9492 66.4551 100.43V103.242C66.7129 103.734 67.1348 103.98 67.7207 103.98C68.1738 103.98 68.5273 103.799 68.7812 103.436C69.0391 103.068 69.168 102.514 69.168 101.771ZM73.3105 105H71.8867V96H73.3105V105ZM78.6543 105C78.5918 104.879 78.5371 104.682 78.4902 104.408C78.0371 104.881 77.4824 105.117 76.8262 105.117C76.1895 105.117 75.6699 104.936 75.2676 104.572C74.8652 104.209 74.6641 103.76 74.6641 103.225C74.6641 102.549 74.9141 102.031 75.4141 101.672C75.918 101.309 76.6367 101.127 77.5703 101.127H78.4434V100.711C78.4434 100.383 78.3516 100.121 78.168 99.9258C77.9844 99.7266 77.7051 99.627 77.3301 99.627C77.0059 99.627 76.7402 99.709 76.5332 99.873C76.3262 100.033 76.2227 100.238 76.2227 100.488H74.7988C74.7988 100.141 74.9141 99.8164 75.1445 99.5156C75.375 99.2109 75.6875 98.9727 76.082 98.8008C76.4805 98.6289 76.9238 98.543 77.4121 98.543C78.1543 98.543 78.7461 98.7305 79.1875 99.1055C79.6289 99.4766 79.8555 100 79.8672 100.676V103.535C79.8672 104.105 79.9473 104.561 80.1074 104.9V105H78.6543ZM77.0898 103.975C77.3711 103.975 77.6348 103.906 77.8809 103.77C78.1309 103.633 78.3184 103.449 78.4434 103.219V102.023H77.6758C77.1484 102.023 76.752 102.115 76.4863 102.299C76.2207 102.482 76.0879 102.742 76.0879 103.078C76.0879 103.352 76.1777 103.57 76.3574 103.734C76.541 103.895 76.7852 103.975 77.0898 103.975ZM83.4824 102.961L84.7715 98.6602H86.2891L83.7695 105.961C83.3828 107.027 82.7266 107.561 81.8008 107.561C81.5938 107.561 81.3652 107.525 81.1152 107.455V106.354L81.3848 106.371C81.7441 106.371 82.0137 106.305 82.1934 106.172C82.377 106.043 82.5215 105.824 82.627 105.516L82.832 104.971L80.6055 98.6602H82.1406L83.4824 102.961Z" fill="#FCFCFC"/>
</svg>
