<svg width="189" height="55" viewBox="0 0 189 55" fill="none" xmlns="http://www.w3.org/2000/svg">
<path d="M26.9431 12.8422C25.0921 12.8422 23.5776 14.3567 23.5776 16.2077V16.6003C21.2218 14.1323 18.0246 12.6178 14.5469 12.6178C7.19896 12.6178 1.36547 19.1244 1.36547 27.1455C1.36547 35.1104 7.19896 41.5609 14.5469 41.5609C18.0246 41.5609 21.2218 40.1025 23.5776 37.6345V38.532C23.5776 44.3655 20.2121 46.9457 15.1639 46.9457C12.6959 46.9457 9.83525 46.3287 7.19896 45.2068C5.0114 44.3094 2.54339 45.936 2.54339 48.348C2.54339 49.6941 3.38476 50.9281 4.61876 51.433C8.09642 52.8913 11.7984 53.6766 15.1639 53.6205C24.3629 53.5644 30.3085 47.8992 30.3085 38.532L30.3646 16.2638C30.3646 14.3567 28.8502 12.8422 26.9992 12.8422H26.9431ZM15.9492 35.2226C11.5741 35.2226 8.09642 31.6328 8.09642 27.1455C8.09642 22.6021 11.5741 18.9562 15.9492 18.9562C20.2682 18.9562 23.802 22.6021 23.802 27.1455C23.802 31.6328 20.2682 35.2226 15.9492 35.2226ZM41.6087 41C43.4597 41 44.9742 39.5416 44.9742 37.6345V5.10162C44.9742 3.25061 43.4597 1.73615 41.6087 1.73615C39.7016 1.73615 38.2433 3.25061 38.2433 5.10162V37.6345C38.2433 39.5416 39.7016 41 41.6087 41ZM66.8366 41.5609C74.9138 41.5609 81.4204 35.1104 81.4204 27.0894C81.4204 19.1244 74.9138 12.6178 66.8366 12.6178C58.7595 12.6178 52.2529 19.1244 52.2529 27.0894C52.2529 35.1104 58.7595 41.5609 66.8366 41.5609ZM66.8366 35.2226C62.4615 35.2226 58.9839 31.6328 58.9839 27.0894C58.9839 22.6021 62.4615 18.9562 66.8366 18.9562C71.1557 18.9562 74.6894 22.6021 74.6894 27.0894C74.6894 31.6328 71.1557 35.2226 66.8366 35.2226ZM104.51 12.6178C100.976 12.6178 97.7793 14.1323 95.4234 16.6003V5.10162C95.4234 3.25061 93.909 1.73615 92.058 1.73615C90.1509 1.73615 88.6925 3.25061 88.6925 5.10162V37.6345C88.6925 39.5416 90.1509 41 92.058 41C93.909 41 95.4234 39.5416 95.4234 37.6345C97.7793 40.1025 100.976 41.5609 104.51 41.5609C111.802 41.5609 117.692 35.1104 117.692 27.1455C117.692 19.1244 111.802 12.6178 104.51 12.6178ZM103.108 35.2226C98.7328 35.2226 95.2552 31.6328 95.2552 27.1455C95.2552 22.6021 98.7328 18.9562 103.108 18.9562C107.427 18.9562 110.961 22.6021 110.961 27.1455C110.961 31.6328 107.427 35.2226 103.108 35.2226ZM139.032 41.5609C147.109 41.5609 153.616 35.1104 153.616 27.0894C153.616 19.1244 147.109 12.6178 139.032 12.6178C130.955 12.6178 124.448 19.1244 124.448 27.0894C124.448 35.1104 130.955 41.5609 139.032 41.5609ZM139.032 35.2226C134.657 35.2226 131.179 31.6328 131.179 27.0894C131.179 22.6021 134.657 18.9562 139.032 18.9562C143.351 18.9562 146.885 22.6021 146.885 27.0894C146.885 31.6328 143.351 35.2226 139.032 35.2226ZM184.278 19.4049H177.491V12.6178C177.491 10.9351 176.089 9.53282 174.406 9.53282C172.667 9.53282 171.321 10.9351 171.321 12.6178V19.4049H164.534C162.795 19.4049 161.449 20.8072 161.449 22.4899C161.449 24.2287 162.795 25.5749 164.534 25.5749H171.321V32.362C171.321 34.1008 172.667 35.447 174.406 35.447C176.089 35.447 177.491 34.1008 177.491 32.362V25.5749H184.278C185.961 25.5749 187.363 24.2287 187.363 22.4899C187.363 20.8072 185.961 19.4049 184.278 19.4049Z" fill="white"/>
<path d="M23.5776 16.6003L22.9109 17.2367L24.4993 18.9008V16.6003H23.5776ZM23.5776 37.6345H24.4993V35.3341L22.9109 36.9981L23.5776 37.6345ZM7.19896 45.2068L7.55988 44.3587L7.54879 44.3541L7.19896 45.2068ZM4.61876 51.433L4.97522 50.583L4.96774 50.5799L4.61876 51.433ZM15.1639 53.6205L15.1583 52.6988L15.1486 52.699L15.1639 53.6205ZM30.3085 38.532L29.3869 38.5297V38.532H30.3085ZM30.3646 16.2638L31.2863 16.2661V16.2638H30.3646ZM26.9431 11.9205C24.583 11.9205 22.6559 13.8476 22.6559 16.2077H24.4993C24.4993 14.8657 25.6011 13.7639 26.9431 13.7639V11.9205ZM22.6559 16.2077V16.6003H24.4993V16.2077H22.6559ZM24.2443 15.9639C21.7317 13.3316 18.3002 11.6962 14.5469 11.6962V13.5395C17.7489 13.5395 20.7119 14.933 22.9109 17.2367L24.2443 15.9639ZM14.5469 11.6962C6.60461 11.6962 0.443786 18.7051 0.443786 27.1455H2.28716C2.28716 19.5437 7.79331 13.5395 14.5469 13.5395V11.6962ZM0.443786 27.1455C0.443786 35.537 6.61122 42.4826 14.5469 42.4826V40.6392C7.7867 40.6392 2.28716 34.6838 2.28716 27.1455H0.443786ZM14.5469 42.4826C18.2903 42.4826 21.7244 40.9109 24.2443 38.2709L22.9109 36.9981C20.7192 39.2942 17.7588 40.6392 14.5469 40.6392V42.4826ZM22.6559 37.6345V38.532H24.4993V37.6345H22.6559ZM22.6559 38.532C22.6559 41.2707 21.8706 43.0993 20.635 44.2526C19.3879 45.4165 17.542 46.024 15.1639 46.024V47.8674C17.8341 47.8674 20.195 47.1847 21.8927 45.6002C23.6018 44.005 24.4993 41.6268 24.4993 38.532H22.6559ZM15.1639 46.024C12.8358 46.024 10.0976 45.4387 7.55985 44.3587L6.83807 46.0549C9.57285 47.2187 12.556 47.8674 15.1639 47.8674V46.024ZM7.54879 44.3541C4.75664 43.2086 1.6217 45.2785 1.6217 48.348H3.46508C3.46508 46.5936 5.26617 45.4101 6.84913 46.0596L7.54879 44.3541ZM1.6217 48.348C1.6217 50.0724 2.69314 51.641 4.26978 52.286L4.96774 50.5799C4.07638 50.2153 3.46508 49.3158 3.46508 48.348H1.6217ZM4.26232 52.2829C7.83901 53.7828 11.6675 54.6006 15.1793 54.5421L15.1486 52.699C11.9294 52.7526 8.35383 51.9998 4.97521 50.583L4.26232 52.2829ZM15.1695 54.5422C19.9575 54.513 23.9915 53.0203 26.8323 50.2249C29.6759 47.4267 31.2302 43.415 31.2302 38.532H29.3869C29.3869 43.0162 27.9683 46.5208 25.5394 48.911C23.1076 51.304 19.5693 52.672 15.1583 52.6989L15.1695 54.5422ZM31.2302 38.5343L31.2863 16.2661L29.4429 16.2615L29.3869 38.5297L31.2302 38.5343ZM31.2863 16.2638C31.2863 13.8576 29.3691 11.9205 26.9992 11.9205V13.7639C28.3312 13.7639 29.4429 14.8557 29.4429 16.2638H31.2863ZM26.9992 11.9205H26.9431V13.7639H26.9992V11.9205ZM15.9492 34.3009C12.1084 34.3009 9.01811 31.1493 9.01811 27.1455H7.17473C7.17473 32.1162 11.0398 36.1443 15.9492 36.1443V34.3009ZM9.01811 27.1455C9.01811 23.0728 12.1206 19.8778 15.9492 19.8778V18.0345C11.0276 18.0345 7.17473 22.1313 7.17473 27.1455H9.01811ZM15.9492 19.8778C19.7259 19.8778 22.8803 23.0772 22.8803 27.1455H24.7236C24.7236 22.1269 20.8105 18.0345 15.9492 18.0345V19.8778ZM22.8803 27.1455C22.8803 31.145 19.7382 34.3009 15.9492 34.3009V36.1443C20.7983 36.1443 24.7236 32.1205 24.7236 27.1455H22.8803ZM41.6087 41.9217C43.9587 41.9217 45.8959 40.0607 45.8959 37.6345H44.0525C44.0525 39.0226 42.9608 40.0783 41.6087 40.0783V41.9217ZM45.8959 37.6345V5.10162H44.0525V37.6345H45.8959ZM45.8959 5.10162C45.8959 2.74158 43.9688 0.814459 41.6087 0.814459V2.65783C42.9507 2.65783 44.0525 3.75964 44.0525 5.10162H45.8959ZM41.6087 0.814459C39.1826 0.814459 37.3216 2.75165 37.3216 5.10162H39.1649C39.1649 3.74957 40.2207 2.65783 41.6087 2.65783V0.814459ZM37.3216 5.10162V37.6345H39.1649V5.10162H37.3216ZM37.3216 37.6345C37.3216 40.0507 39.1926 41.9217 41.6087 41.9217V40.0783C40.2107 40.0783 39.1649 39.0326 39.1649 37.6345H37.3216ZM66.8366 42.4826C75.4158 42.4826 82.342 35.6264 82.342 27.0894H80.4987C80.4987 34.5944 74.4117 40.6392 66.8366 40.6392V42.4826ZM82.342 27.0894C82.342 18.6108 75.4182 11.6962 66.8366 11.6962V13.5395C74.4094 13.5395 80.4987 19.6381 80.4987 27.0894H82.342ZM66.8366 11.6962C58.2551 11.6962 51.3312 18.6108 51.3312 27.0894H53.1746C53.1746 19.6381 59.2639 13.5395 66.8366 13.5395V11.6962ZM51.3312 27.0894C51.3312 35.6264 58.2574 42.4826 66.8366 42.4826V40.6392C59.2616 40.6392 53.1746 34.5944 53.1746 27.0894H51.3312ZM66.8366 34.3009C62.9999 34.3009 59.9055 31.1536 59.9055 27.0894H58.0622C58.0622 32.112 61.9231 36.1443 66.8366 36.1443V34.3009ZM59.9055 27.0894C59.9055 23.077 63.004 19.8778 66.8366 19.8778V18.0345C61.9191 18.0345 58.0622 22.1271 58.0622 27.0894H59.9055ZM66.8366 19.8778C70.6174 19.8778 73.7677 23.0814 73.7677 27.0894H75.6111C75.6111 22.1227 71.6939 18.0345 66.8366 18.0345V19.8778ZM73.7677 27.0894C73.7677 31.1492 70.6215 34.3009 66.8366 34.3009V36.1443C71.6898 36.1443 75.6111 32.1163 75.6111 27.0894H73.7677ZM95.4234 16.6003H94.5017V18.9008L96.0901 17.2367L95.4234 16.6003ZM95.4234 37.6345L96.0901 36.9981L94.5017 35.3341V37.6345H95.4234ZM104.51 11.6962C100.703 11.6962 97.271 13.3299 94.7567 15.9639L96.0901 17.2367C98.2875 14.9347 101.25 13.5395 104.51 13.5395V11.6962ZM96.3451 16.6003V5.10162H94.5017V16.6003H96.3451ZM96.3451 5.10162C96.3451 2.74158 94.418 0.814459 92.058 0.814459V2.65783C93.3999 2.65783 94.5017 3.75964 94.5017 5.10162H96.3451ZM92.058 0.814459C89.6318 0.814459 87.7708 2.75165 87.7708 5.10162H89.6142C89.6142 3.74957 90.6699 2.65783 92.058 2.65783V0.814459ZM87.7708 5.10162V37.6345H89.6142V5.10162H87.7708ZM87.7708 37.6345C87.7708 40.0507 89.6418 41.9217 92.058 41.9217V40.0783C90.6599 40.0783 89.6142 39.0326 89.6142 37.6345H87.7708ZM92.058 41.9217C94.4079 41.9217 96.3451 40.0607 96.3451 37.6345H94.5017C94.5017 39.0226 93.41 40.0783 92.058 40.0783V41.9217ZM94.7567 38.2709C97.2783 40.9125 100.713 42.4826 104.51 42.4826V40.6392C101.24 40.6392 98.2803 39.2925 96.0901 36.9981L94.7567 38.2709ZM104.51 42.4826C112.387 42.4826 118.613 35.5397 118.613 27.1455H116.77C116.77 34.6812 111.217 40.6392 104.51 40.6392V42.4826ZM118.613 27.1455C118.613 18.7024 112.394 11.6962 104.51 11.6962V13.5395C111.21 13.5395 116.77 19.5464 116.77 27.1455H118.613ZM103.108 34.3009C99.2671 34.3009 96.1768 31.1493 96.1768 27.1455H94.3335C94.3335 32.1162 98.1985 36.1443 103.108 36.1443V34.3009ZM96.1768 27.1455C96.1768 23.0728 99.2793 19.8778 103.108 19.8778V18.0345C98.1863 18.0345 94.3335 22.1313 94.3335 27.1455H96.1768ZM103.108 19.8778C106.885 19.8778 110.039 23.0772 110.039 27.1455H111.882C111.882 22.1269 107.969 18.0345 103.108 18.0345V19.8778ZM110.039 27.1455C110.039 31.145 106.897 34.3009 103.108 34.3009V36.1443C107.957 36.1443 111.882 32.1205 111.882 27.1455H110.039ZM139.032 42.4826C147.611 42.4826 154.538 35.6264 154.538 27.0894H152.694C152.694 34.5944 146.607 40.6392 139.032 40.6392V42.4826ZM154.538 27.0894C154.538 18.6108 147.614 11.6962 139.032 11.6962V13.5395C146.605 13.5395 152.694 19.6381 152.694 27.0894H154.538ZM139.032 11.6962C130.451 11.6962 123.527 18.6108 123.527 27.0894H125.37C125.37 19.6381 131.459 13.5395 139.032 13.5395V11.6962ZM123.527 27.0894C123.527 35.6264 130.453 42.4826 139.032 42.4826V40.6392C131.457 40.6392 125.37 34.5944 125.37 27.0894H123.527ZM139.032 34.3009C135.195 34.3009 132.101 31.1536 132.101 27.0894H130.258C130.258 32.112 134.119 36.1443 139.032 36.1443V34.3009ZM132.101 27.0894C132.101 23.077 135.199 19.8778 139.032 19.8778V18.0345C134.115 18.0345 130.258 22.1271 130.258 27.0894H132.101ZM139.032 19.8778C142.813 19.8778 145.963 23.0814 145.963 27.0894H147.807C147.807 22.1227 143.889 18.0345 139.032 18.0345V19.8778ZM145.963 27.0894C145.963 31.1492 142.817 34.3009 139.032 34.3009V36.1443C143.885 36.1443 147.807 32.1163 147.807 27.0894H145.963ZM177.491 19.4049H176.569V20.3266H177.491V19.4049ZM171.321 19.4049V20.3266H172.243V19.4049H171.321ZM171.321 25.5749H172.243V24.6532H171.321V25.5749ZM177.491 25.5749V24.6532H176.569V25.5749H177.491ZM184.278 18.4832H177.491V20.3266H184.278V18.4832ZM178.413 19.4049V12.6178H176.569V19.4049H178.413ZM178.413 12.6178C178.413 10.4261 176.598 8.61114 174.406 8.61114V10.4545C175.58 10.4545 176.569 11.4441 176.569 12.6178H178.413ZM174.406 8.61114C172.147 8.61114 170.399 10.437 170.399 12.6178H172.243C172.243 11.4332 173.187 10.4545 174.406 10.4545V8.61114ZM170.399 12.6178V19.4049H172.243V12.6178H170.399ZM171.321 18.4832H164.534V20.3266H171.321V18.4832ZM164.534 18.4832C162.275 18.4832 160.527 20.3091 160.527 22.4899H162.371C162.371 21.3052 163.315 20.3266 164.534 20.3266V18.4832ZM160.527 22.4899C160.527 24.7378 162.286 26.4966 164.534 26.4966V24.6532C163.304 24.6532 162.371 23.7197 162.371 22.4899H160.527ZM164.534 26.4966H171.321V24.6532H164.534V26.4966ZM170.399 25.5749V32.362H172.243V25.5749H170.399ZM170.399 32.362C170.399 34.6098 172.158 36.3687 174.406 36.3687V34.5253C173.176 34.5253 172.243 33.5917 172.243 32.362H170.399ZM174.406 36.3687C176.587 36.3687 178.413 34.6207 178.413 32.362H176.569C176.569 33.5809 175.591 34.5253 174.406 34.5253V36.3687ZM178.413 32.362V25.5749H176.569V32.362H178.413ZM177.491 26.4966H184.278V24.6532H177.491V26.4966ZM184.278 26.4966C186.459 26.4966 188.285 24.7487 188.285 22.4899H186.441C186.441 23.7088 185.463 24.6532 184.278 24.6532V26.4966ZM188.285 22.4899C188.285 20.2981 186.47 18.4832 184.278 18.4832V20.3266C185.452 20.3266 186.441 21.3162 186.441 22.4899H188.285Z" fill="white"/>
</svg>
