<svg width="124" height="121" viewBox="0 0 124 121" fill="none" xmlns="http://www.w3.org/2000/svg">
<rect width="118" height="121" rx="3" fill="#FFB077"/>
<ellipse cx="60.5" cy="46" rx="32.5" ry="32" fill="#ED9352"/>
<g clip-path="url(#clip0)">
<path d="M78.48 29.5244H65.9969C65.9 28.903 65.6886 28.3194 65.3866 27.7941L75.8074 24.5287C76.2197 24.3996 76.4491 23.9607 76.32 23.5485C76.1908 23.1363 75.752 22.9065 75.3398 23.0361L64.3142 26.4909C63.4258 25.7182 62.2669 25.2487 60.9997 25.2487C59.7326 25.2487 58.5737 25.7182 57.6853 26.4909L46.6597 23.0361C46.2473 22.9069 45.8086 23.1364 45.6795 23.5485C45.5503 23.9608 45.7797 24.3996 46.1919 24.5287L56.6128 27.7941C56.3108 28.3194 56.0994 28.903 56.0025 29.5244H43.5199C42.2221 29.5244 41.1662 30.5803 41.1662 31.878V58.352C41.1662 59.6498 42.2221 60.7057 43.5199 60.7057H43.8971V62.2179C43.8971 62.6498 44.2473 63 44.6793 63C45.1112 63 45.4614 62.6498 45.4614 62.2179V60.7057H76.5385V62.2179C76.5385 62.6498 76.8885 63 77.3206 63C77.7527 63 78.1027 62.6498 78.1027 62.2179V60.7057H78.4799C79.7777 60.7057 80.8336 59.6498 80.8336 58.352V31.878C80.8338 30.5803 79.7779 29.5244 78.48 29.5244ZM60.9997 26.813C62.6571 26.813 64.0477 27.9735 64.404 29.5244H57.5956C57.9518 27.9736 59.3422 26.813 60.9997 26.813ZM79.2695 58.352C79.2695 58.7873 78.9153 59.1414 78.4802 59.1414H43.5199C43.0847 59.1414 42.7305 58.7873 42.7305 58.352V31.878C42.7305 31.4427 43.0847 31.0887 43.5199 31.0887H78.48C78.9153 31.0887 79.2694 31.4428 79.2694 31.878V58.352H79.2695Z" fill="white"/>
<path d="M77.1841 33.813C77.1239 33.4617 76.8339 33.1954 76.4787 33.1656C66.2076 32.3016 55.7922 32.3016 45.5212 33.1656C45.166 33.1955 44.876 33.4617 44.8158 33.813C43.5736 41.0703 43.5736 48.4299 44.8158 55.6871C44.876 56.0384 45.166 56.3046 45.5212 56.3345C50.6566 56.7665 55.8282 56.9825 61 56.9825C66.1716 56.9825 71.3432 56.7665 76.4787 56.3345C76.8338 56.3046 77.1239 56.0384 77.1841 55.6871C78.4263 48.4298 78.4263 41.0703 77.1841 33.813ZM75.7416 54.8257C65.9563 55.6158 56.0436 55.6158 46.2585 54.8257C45.1787 48.1369 45.1787 41.3632 46.2585 34.6744C56.0437 33.8844 65.9563 33.8844 75.7416 34.6744C76.8213 41.3632 76.8213 48.1369 75.7416 54.8257Z" fill="white"/>
<path d="M74.4854 40.5918C74.054 40.6157 73.7238 40.9847 73.7477 41.4161C73.8997 44.1597 73.8628 46.9409 73.6378 49.6823C73.6025 50.1128 73.9228 50.4905 74.3533 50.5258C74.3751 50.5276 74.3967 50.5284 74.4181 50.5284C74.821 50.5284 75.1633 50.2189 75.1968 49.8102C75.4276 46.9976 75.4655 44.1443 75.3095 41.3294C75.2856 40.8982 74.9185 40.5685 74.4854 40.5918Z" fill="white"/>
<path d="M74.3371 39.6483C74.3623 39.6483 74.3877 39.6471 74.4133 39.6447C74.8432 39.603 75.1582 39.2208 75.1165 38.7908C75.039 37.9889 74.9443 37.1762 74.8351 36.375C74.7767 35.9469 74.3809 35.6474 73.9545 35.7057C73.5265 35.7641 73.2267 36.1583 73.2851 36.5863C73.3916 37.3673 73.4839 38.1596 73.5596 38.9414C73.5987 39.3458 73.939 39.6483 74.3371 39.6483Z" fill="white"/>
<path d="M78.2961 56.9795C77.6961 56.5845 76.9038 57.1676 77.1136 57.8566C77.2088 58.1692 77.4966 58.3938 77.8229 58.4103C78.1638 58.4275 78.4821 58.2131 78.5978 57.8928C78.7174 57.5616 78.5906 57.1734 78.2961 56.9795Z" fill="white"/>
</g>
<path d="M48.4062 103.893C48.0977 104.295 47.6699 104.6 47.123 104.807C46.5762 105.014 45.9551 105.117 45.2598 105.117C44.5449 105.117 43.9121 104.955 43.3613 104.631C42.8105 104.307 42.3848 103.844 42.084 103.242C41.7871 102.637 41.6328 101.932 41.6211 101.127V100.459C41.6211 99.1699 41.9297 98.1641 42.5469 97.4414C43.1641 96.7148 44.0254 96.3516 45.1309 96.3516C46.0801 96.3516 46.834 96.5859 47.3926 97.0547C47.9512 97.5234 48.2871 98.1992 48.4004 99.082H46.9473C46.7832 98.0547 46.1875 97.541 45.1602 97.541C44.4961 97.541 43.9902 97.7812 43.6426 98.2617C43.2988 98.7383 43.1211 99.4395 43.1094 100.365V101.021C43.1094 101.943 43.3027 102.66 43.6895 103.172C44.0801 103.68 44.6211 103.934 45.3125 103.934C46.0703 103.934 46.6094 103.762 46.9297 103.418V101.748H45.1719V100.623H48.4062V103.893ZM53.4512 103.277C53.4512 103.023 53.3457 102.83 53.1348 102.697C52.9277 102.564 52.582 102.447 52.0977 102.346C51.6133 102.244 51.209 102.115 50.8848 101.959C50.1738 101.615 49.8184 101.117 49.8184 100.465C49.8184 99.918 50.0488 99.4609 50.5098 99.0938C50.9707 98.7266 51.5566 98.543 52.2676 98.543C53.0254 98.543 53.6367 98.7305 54.1016 99.1055C54.5703 99.4805 54.8047 99.9668 54.8047 100.564H53.3809C53.3809 100.291 53.2793 100.064 53.0762 99.8848C52.873 99.7012 52.6035 99.6094 52.2676 99.6094C51.9551 99.6094 51.6992 99.6816 51.5 99.8262C51.3047 99.9707 51.207 100.164 51.207 100.406C51.207 100.625 51.2988 100.795 51.4824 100.916C51.666 101.037 52.0371 101.16 52.5957 101.285C53.1543 101.406 53.5918 101.553 53.9082 101.725C54.2285 101.893 54.4648 102.096 54.6172 102.334C54.7734 102.572 54.8516 102.861 54.8516 103.201C54.8516 103.771 54.6152 104.234 54.1426 104.59C53.6699 104.941 53.0508 105.117 52.2852 105.117C51.7656 105.117 51.3027 105.023 50.8965 104.836C50.4902 104.648 50.1738 104.391 49.9473 104.062C49.7207 103.734 49.6074 103.381 49.6074 103.002H50.9902C51.0098 103.338 51.1367 103.598 51.3711 103.781C51.6055 103.961 51.916 104.051 52.3027 104.051C52.6777 104.051 52.9629 103.98 53.1582 103.84C53.3535 103.695 53.4512 103.508 53.4512 103.277ZM57.5 99.3516C57.9648 98.8125 58.5527 98.543 59.2637 98.543C60.6152 98.543 61.3008 99.3145 61.3203 100.857V105H59.8965V100.91C59.8965 100.473 59.8008 100.164 59.6094 99.9844C59.4219 99.8008 59.1445 99.709 58.7773 99.709C58.207 99.709 57.7812 99.9629 57.5 100.471V105H56.0762V96H57.5V99.3516ZM62.498 101.771C62.498 101.15 62.6211 100.592 62.8672 100.096C63.1133 99.5957 63.459 99.2129 63.9043 98.9473C64.3496 98.6777 64.8613 98.543 65.4395 98.543C66.2949 98.543 66.9883 98.8184 67.5195 99.3691C68.0547 99.9199 68.3438 100.65 68.3867 101.561L68.3926 101.895C68.3926 102.52 68.2715 103.078 68.0293 103.57C67.791 104.062 67.4473 104.443 66.998 104.713C66.5527 104.982 66.0371 105.117 65.4512 105.117C64.5566 105.117 63.8398 104.82 63.3008 104.227C62.7656 103.629 62.498 102.834 62.498 101.842V101.771ZM63.9219 101.895C63.9219 102.547 64.0566 103.059 64.3262 103.43C64.5957 103.797 64.9707 103.98 65.4512 103.98C65.9316 103.98 66.3047 103.793 66.5703 103.418C66.8398 103.043 66.9746 102.494 66.9746 101.771C66.9746 101.131 66.8359 100.623 66.5586 100.248C66.2852 99.873 65.9121 99.6855 65.4395 99.6855C64.9746 99.6855 64.6055 99.8711 64.332 100.242C64.0586 100.609 63.9219 101.16 63.9219 101.895ZM75.166 103.037L76.1738 98.6602H77.5625L75.834 105H74.6621L73.3027 100.646L71.9668 105H70.7949L69.0605 98.6602H70.4492L71.4746 102.99L72.7754 98.6602H73.8477L75.166 103.037Z" fill="#FCFCFC"/>
<defs>
<clipPath id="clip0">
<rect x="41" y="23" width="40" height="40" fill="white"/>
</clipPath>
</defs>
</svg>
