<svg width="118" height="121" viewBox="0 0 118 121" fill="none" xmlns="http://www.w3.org/2000/svg">
<rect width="118" height="121" rx="3" fill="#726E6E"/>
<ellipse cx="58.5" cy="44" rx="32.5" ry="32" fill="#342F3F"/>
<path d="M49.393 31.3558C48.1119 31.8397 47.194 33.0685 47.194 34.5166C47.194 35.0742 47.3426 35.5932 47.5824 36.0579C46.5663 36.4486 45.8392 37.4283 45.8392 38.581C45.8392 39.7341 46.5663 40.7135 47.5824 41.1044C47.3426 41.5691 47.194 42.0881 47.194 42.6455C47.194 44.0939 48.1119 45.3227 49.393 45.8062C49.2914 46.09 49.2263 46.3917 49.2263 46.7099C49.2263 48.2043 50.4415 49.4195 51.9359 49.4195C52.2733 49.4195 52.5931 49.3497 52.8911 49.2373C53.3301 50.1432 54.2506 50.7743 55.3229 50.7743C56.8173 50.7743 58.0326 49.5591 58.0326 48.0647V29.0973C58.0326 27.6033 56.8173 26.3877 55.3229 26.3877C54.2506 26.3877 53.3301 27.0191 52.8911 27.9248C52.5931 27.8123 52.2733 27.7425 51.9359 27.7425C50.4415 27.7425 49.2263 28.9581 49.2263 30.4521C49.2263 30.7707 49.2914 31.072 49.393 31.3558ZM51.9359 29.0973C52.6831 29.0973 53.2907 29.7049 53.2907 30.4521H54.6455C54.6455 29.8012 54.4051 29.2104 54.021 28.7431C54.1782 28.1689 54.6991 27.7425 55.3229 27.7425C56.0701 27.7425 56.6777 28.3501 56.6777 29.0973V48.0647C56.6777 48.8119 56.0701 49.4195 55.3229 49.4195C54.6991 49.4195 54.1782 48.9935 54.021 48.419C54.4051 47.9516 54.6455 47.3612 54.6455 46.7099H53.2907C53.2907 47.4571 52.6831 48.0647 51.9359 48.0647C51.1887 48.0647 50.5811 47.4571 50.5811 46.7099C50.5811 45.9627 51.1887 45.3551 51.9359 45.3551V44.0003C51.276 44.0003 50.6787 44.247 50.2086 44.64C49.2656 44.4643 48.5489 43.6387 48.5489 42.6455C48.5489 41.5252 49.4608 40.6132 50.5811 40.6132C51.7017 40.6132 52.6133 41.5252 52.6133 42.6455H53.9681C53.9681 40.778 52.4489 39.2584 50.5811 39.2584C49.8157 39.2584 49.1165 39.5234 48.5489 39.9537V39.9358C47.8017 39.9358 47.194 39.3282 47.194 38.581C47.194 37.8338 47.8017 37.2262 48.5489 37.2262V37.2087C49.1165 37.639 49.8157 37.9036 50.5811 37.9036C52.4489 37.9036 53.9681 36.3844 53.9681 34.5166H52.6133C52.6133 35.6372 51.7017 36.5488 50.5811 36.5488C49.4608 36.5488 48.5489 35.6372 48.5489 34.5166C48.5489 33.5236 49.2656 32.698 50.2086 32.5224C50.6787 32.9153 51.276 33.1618 51.9359 33.1618V31.8069C51.1887 31.8069 50.5811 31.1993 50.5811 30.4521C50.5811 29.7049 51.1887 29.0973 51.9359 29.0973Z" fill="white"/>
<path d="M65.484 27.7425C65.1466 27.7425 64.8271 27.8123 64.5291 27.9248C64.0898 27.0191 63.1693 26.3877 62.097 26.3877C60.6026 26.3877 59.3873 27.6033 59.3873 29.0973V48.0647C59.3873 49.5591 60.6026 50.7743 62.097 50.7743C63.1693 50.7743 64.0898 50.1432 64.5291 49.2373C64.8271 49.3497 65.1466 49.4195 65.484 49.4195C66.9784 49.4195 68.1936 48.2043 68.1936 46.7099C68.1936 46.3917 68.1288 46.09 68.0269 45.8062C69.308 45.3227 70.2258 44.0939 70.2258 42.6455C70.2258 42.0881 70.0777 41.5691 69.8378 41.1044C70.854 40.7135 71.5806 39.7341 71.5806 38.581C71.5806 37.4283 70.854 36.4486 69.8378 36.0579C70.0777 35.5932 70.2258 35.0742 70.2258 34.5166C70.2258 33.0685 69.308 31.8397 68.0269 31.3558C68.1288 31.072 68.1936 30.7707 68.1936 30.4521C68.1936 28.9581 66.9784 27.7425 65.484 27.7425ZM68.871 34.5166C68.871 35.6372 67.9594 36.5488 66.8388 36.5488C65.7185 36.5488 64.8066 35.6372 64.8066 34.5166H63.4518C63.4518 36.3844 64.9713 37.9036 66.8388 37.9036C67.6042 37.9036 68.3034 37.639 68.871 37.2087V37.2262C69.6182 37.2262 70.2258 37.8338 70.2258 38.581C70.2258 39.3282 69.6182 39.9358 68.871 39.9358V39.9537C68.3034 39.5234 67.6042 39.2584 66.8388 39.2584C64.9713 39.2584 63.4518 40.778 63.4518 42.6455H64.8066C64.8066 41.5252 65.7185 40.6132 66.8388 40.6132C67.9594 40.6132 68.871 41.5252 68.871 42.6455C68.871 43.6387 68.1543 44.4643 67.2116 44.64C66.7412 44.247 66.1439 44.0003 65.484 44.0003V45.3551C66.2312 45.3551 66.8388 45.9627 66.8388 46.7099C66.8388 47.4571 66.2312 48.0647 65.484 48.0647C64.7368 48.0647 64.1292 47.4571 64.1292 46.7099H62.7744C62.7744 47.3612 63.0148 47.9516 63.3988 48.419C63.2417 48.9935 62.7208 49.4195 62.097 49.4195C61.3498 49.4195 60.7421 48.8119 60.7421 48.0647V29.0973C60.7421 28.3501 61.3498 27.7425 62.097 27.7425C62.7208 27.7425 63.2417 28.1689 63.3988 28.7431C63.0148 29.2104 62.7744 29.8012 62.7744 30.4521H64.1292C64.1292 29.7049 64.7368 29.0973 65.484 29.0973C66.2312 29.0973 66.8388 29.7049 66.8388 30.4521C66.8388 31.1993 66.2312 31.8069 65.484 31.8069V33.1618C66.1439 33.1618 66.7412 32.9153 67.2116 32.5224C68.1543 32.698 68.871 33.5236 68.871 34.5166Z" fill="white"/>
<path d="M69.3771 27.2252C66.2117 24.25 62.0658 22.7582 57.715 23.0321L57.799 24.3839C61.7744 24.1368 65.5584 25.4963 68.4496 28.2122C71.3421 30.9304 72.9354 34.6135 72.9354 38.581C72.9354 43.3622 70.5523 47.7958 66.5603 50.4413C65.1833 51.3542 64.1414 52.6564 63.4994 54.1614H53.8923C53.2414 52.6455 52.1955 51.334 50.8162 50.4128C46.7022 47.6632 44.3382 43.0711 44.492 38.1272L43.1378 38.0852C42.9691 43.4992 45.5587 48.5288 50.0637 51.5387C51.0587 52.2039 51.8532 53.1095 52.4069 54.1614H50.581V55.5162H52.9473C53.0786 55.9551 53.1838 56.4049 53.2371 56.871H51.9358V58.2258H53.2907V60.258C53.2907 60.6328 53.5943 60.9354 53.9681 60.9354H54.6455C54.6455 63.177 56.4683 64.9999 58.7099 64.9999C60.9515 64.9999 62.7743 63.177 62.7743 60.9354H63.4518C63.8258 60.9354 64.1292 60.6328 64.1292 60.258V58.2258H65.484V56.871H64.1768C64.2248 56.4056 64.3203 55.9544 64.449 55.5162H66.8388V54.1614H64.9835C65.5293 53.1211 66.3192 52.2267 67.3091 51.5711C71.6802 48.6723 74.2903 43.8167 74.2903 38.581C74.2903 34.2986 72.4992 30.1591 69.3771 27.2252ZM58.7099 63.6451C57.2155 63.6451 56.0003 62.4298 56.0003 60.9354H61.4195C61.4195 62.4298 60.2043 63.6451 58.7099 63.6451ZM62.7743 59.5806H54.6455V58.2258H62.7743V59.5806ZM62.8226 56.871H54.5912C54.5459 56.4099 54.4728 55.9568 54.3617 55.5162H63.0333C62.9255 55.9561 62.863 56.4112 62.8226 56.871Z" fill="white"/>
<path d="M42.4522 27.7425C43.9466 27.7425 45.1618 28.9581 45.1618 30.4521C45.1618 30.8269 45.4655 31.1295 45.8392 31.1295C46.2133 31.1295 46.5166 30.8269 46.5166 30.4521C46.5166 28.9581 47.7319 27.7425 49.2262 27.7425C49.6003 27.7425 49.9037 27.4399 49.9037 27.0651C49.9037 26.6907 49.6003 26.3877 49.2262 26.3877C47.7319 26.3877 46.5166 25.1725 46.5166 23.6781C46.5166 23.3036 46.2133 23.0007 45.8392 23.0007C45.4655 23.0007 45.1618 23.3036 45.1618 23.6781C45.1618 25.1725 43.9466 26.3877 42.4522 26.3877C42.0784 26.3877 41.7748 26.6907 41.7748 27.0651C41.7748 27.4399 42.0784 27.7425 42.4522 27.7425ZM45.8392 25.9223C46.1402 26.3748 46.5295 26.7644 46.982 27.0651C46.5295 27.3661 46.1402 27.7554 45.8392 28.2079C45.5386 27.7554 45.1489 27.3661 44.6964 27.0651C45.1489 26.7644 45.5386 26.3748 45.8392 25.9223Z" fill="white"/>
<path d="M45.1618 34.5166C45.5359 34.5166 45.8392 34.2139 45.8392 33.8392C45.8392 33.4647 45.5359 33.1618 45.1618 33.1618C43.6674 33.1618 42.4522 31.9465 42.4522 30.4521C42.4522 30.0777 42.1489 29.7747 41.7748 29.7747C41.401 29.7747 41.0974 30.0777 41.0974 30.4521C41.0974 31.9465 39.8821 33.1618 38.3877 33.1618C38.014 33.1618 37.7103 33.4647 37.7103 33.8392C37.7103 34.2139 38.014 34.5166 38.3877 34.5166C39.8821 34.5166 41.0974 35.7321 41.0974 37.2262C41.0974 37.601 41.401 37.9036 41.7748 37.9036C42.1489 37.9036 42.4522 37.601 42.4522 37.2262C42.4522 35.7321 43.6674 34.5166 45.1618 34.5166ZM41.7748 34.982C41.4741 34.5295 41.0845 34.1402 40.632 33.8392C41.0845 33.5385 41.4734 33.1489 41.7748 32.6964C42.0758 33.1489 42.4651 33.5378 42.9176 33.8392C42.4651 34.1402 42.0758 34.5295 41.7748 34.982Z" fill="white"/>
<path d="M49.5137 97.1191V98.6602H50.6328V99.7148H49.5137V103.254C49.5137 103.496 49.5605 103.672 49.6543 103.781C49.752 103.887 49.9238 103.939 50.1699 103.939C50.334 103.939 50.5 103.92 50.668 103.881V104.982C50.3438 105.072 50.0312 105.117 49.7305 105.117C48.6367 105.117 48.0898 104.514 48.0898 103.307V99.7148H47.0469V98.6602H48.0898V97.1191H49.5137ZM54.5176 105.117C53.6152 105.117 52.8828 104.834 52.3203 104.268C51.7617 103.697 51.4824 102.939 51.4824 101.994V101.818C51.4824 101.186 51.6035 100.621 51.8457 100.125C52.0918 99.625 52.4355 99.2363 52.877 98.959C53.3184 98.6816 53.8105 98.543 54.3535 98.543C55.2168 98.543 55.8828 98.8184 56.3516 99.3691C56.8242 99.9199 57.0605 100.699 57.0605 101.707V102.281H52.918C52.9609 102.805 53.1348 103.219 53.4395 103.523C53.748 103.828 54.1348 103.98 54.5996 103.98C55.252 103.98 55.7832 103.717 56.1934 103.189L56.9609 103.922C56.707 104.301 56.3672 104.596 55.9414 104.807C55.5195 105.014 55.0449 105.117 54.5176 105.117ZM54.3477 99.6855C53.957 99.6855 53.6406 99.8223 53.3984 100.096C53.1602 100.369 53.0078 100.75 52.9414 101.238H55.6543V101.133C55.623 100.656 55.4961 100.297 55.2734 100.055C55.0508 99.8086 54.7422 99.6855 54.3477 99.6855ZM60.7754 103.98C61.1309 103.98 61.4258 103.877 61.6602 103.67C61.8945 103.463 62.0195 103.207 62.0352 102.902H63.377C63.3613 103.297 63.2383 103.666 63.0078 104.01C62.7773 104.35 62.4648 104.619 62.0703 104.818C61.6758 105.018 61.25 105.117 60.793 105.117C59.9062 105.117 59.2031 104.83 58.6836 104.256C58.1641 103.682 57.9043 102.889 57.9043 101.877V101.73C57.9043 100.766 58.1621 99.9941 58.6777 99.416C59.1934 98.834 59.8965 98.543 60.7871 98.543C61.541 98.543 62.1543 98.7637 62.627 99.2051C63.1035 99.6426 63.3535 100.219 63.377 100.934H62.0352C62.0195 100.57 61.8945 100.271 61.6602 100.037C61.4297 99.8027 61.1348 99.6855 60.7754 99.6855C60.3145 99.6855 59.959 99.8535 59.709 100.189C59.459 100.521 59.332 101.027 59.3281 101.707V101.936C59.3281 102.623 59.4512 103.137 59.6973 103.477C59.9473 103.812 60.3066 103.98 60.7754 103.98ZM65.8555 99.3516C66.3203 98.8125 66.9082 98.543 67.6191 98.543C68.9707 98.543 69.6562 99.3145 69.6758 100.857V105H68.252V100.91C68.252 100.473 68.1562 100.164 67.9648 99.9844C67.7773 99.8008 67.5 99.709 67.1328 99.709C66.5625 99.709 66.1367 99.9629 65.8555 100.471V105H64.4316V96H65.8555V99.3516Z" fill="#FCFCFC"/>
</svg>
